<?xml version="1.0" encoding="utf-8"?>
<!-- Generator: Adobe Illustrator 17.1.0, SVG Export Plug-In . SVG Version: 6.00 Build 0)  -->
<!DOCTYPE svg PUBLIC "-//W3C//DTD SVG 1.1//EN" "http://www.w3.org/Graphics/SVG/1.1/DTD/svg11.dtd">
<svg version="1.1" id="Layer_1" xmlns="http://www.w3.org/2000/svg" xmlns:xlink="http://www.w3.org/1999/xlink" x="0px" y="0px"
	 viewBox="3.4 358.7 94.4 80.2" xml:space="preserve">
<g>
	<g>
		<g>
			<g>
				<rect x="21.3" y="375.1" fill="#557EBF" width="14.6" height="47.4"/>
				<rect x="64.9" y="375.1" fill="#27BAA2" width="14.7" height="47.4"/>
				<polygon fill="#62C3A6" points="65,422.4 79.7,422.4 57.8,382.2 43.2,382.2 				"/>
			</g>
			<polygon fill="#59C2EF" points="35.9,422.4 21.3,422.4 43.2,382.2 57.7,382.2 			"/>
		</g>
		<g>
			<path fill="#557EBF" d="M12.7,429.7V368h16v-9.4H7c-2.1,0-3.6,1.7-3.6,3.7v72.4c0,2.1,1.7,4.1,3.7,4.1h21.7v-9.2H12.7L12.7,429.7
				z"/>
			<path fill="#27BAA2" d="M88.3,429.7V368h-16v-9.4h21.7c2.1,0,3.7,1.7,3.7,3.7v72.4c0,2.1-1.7,4.1-3.7,4.1H72.3v-9.2H88.3
				L88.3,429.7z"/>
		</g>
	</g>
</g>
</svg>
